<?xml version="1.0" encoding="UTF-8" standalone="no"?>
<!-- Created with Inkscape (http://www.inkscape.org/) -->

<svg
   xmlns:dc="http://purl.org/dc/elements/1.1/"
   xmlns:cc="http://creativecommons.org/ns#"
   xmlns:rdf="http://www.w3.org/1999/02/22-rdf-syntax-ns#"
   xmlns:svg="http://www.w3.org/2000/svg"
   xmlns="http://www.w3.org/2000/svg"
   xmlns:xlink="http://www.w3.org/1999/xlink"
   xmlns:sodipodi="http://sodipodi.sourceforge.net/DTD/sodipodi-0.dtd"
   xmlns:inkscape="http://www.inkscape.org/namespaces/inkscape"
   width="744.09448819"
   height="1052.3622047"
   id="svg5996"
   version="1.1"
   inkscape:version="0.48.2 r9819"
   sodipodi:docname="ClientApplicationNoMessagesCropped.eps">
  <defs
     id="defs5998">
    <linearGradient
       id="linearGradient7774">
      <stop
         style="stop-color:#ffffff;stop-opacity:1"
         offset="0"
         id="stop7776" />
      <stop
         style="stop-color:#ffffff;stop-opacity:0;"
         offset="1"
         id="stop7778" />
    </linearGradient>
    <linearGradient
       inkscape:collect="always"
       xlink:href="#linearGradient7774"
       id="linearGradient7780"
       x1="491.09464"
       y1="1330.5911"
       x2="474.01587"
       y2="1246.6056"
       gradientUnits="userSpaceOnUse"
       gradientTransform="matrix(4.0546132,0,0,4.9906667,1076.1063,-10398.376)" />
  </defs>
  <sodipodi:namedview
     id="base"
     pagecolor="#ffffff"
     bordercolor="#ffffff"
     borderopacity="0.0"
     inkscape:pageopacity="0.0"
     inkscape:pageshadow="0"
     inkscape:zoom="2.56"
     inkscape:cx="408.82735"
     inkscape:cy="-142.23693"
     inkscape:document-units="px"
     inkscape:current-layer="g6898"
     showgrid="false"
     inkscape:window-width="1104"
     inkscape:window-height="794"
     inkscape:window-x="114"
     inkscape:window-y="50"
     inkscape:window-maximized="0" />
  <metadata
     id="metadata6001">
    <rdf:RDF>
      <cc:Work
         rdf:about="">
        <dc:format>image/svg+xml</dc:format>
        <dc:type
           rdf:resource="http://purl.org/dc/dcmitype/StillImage" />
        <dc:title></dc:title>
      </cc:Work>
    </rdf:RDF>
  </metadata>
  <g
     inkscape:label="Layer 1"
     inkscape:groupmode="layer"
     id="layer1">
    <g
       transform="matrix(1.25,0,0,-1.25,22.595149,1745.4872)"
       inkscape:label="ink_ext_XXXXXX"
       id="g6896">
      <g
         transform="scale(0.1,0.1)"
         id="g6898">
        <path
           id="path6992"
           style="fill:none;stroke:#808080;stroke-width:3.84511423;stroke-linecap:butt;stroke-linejoin:miter;stroke-miterlimit:10;stroke-opacity:1;stroke-dasharray:none"
           d="m 2800,3670 0,-424.9239"
           inkscape:connector-curvature="0" />
        <path
           id="path6994"
           style="fill:#808080;fill-opacity:1;fill-rule:nonzero;stroke:none"
           d="M 2860,3565.7428 2800,3670 2740,3565.7428"
           inkscape:connector-curvature="0" />
        <path
           id="path7034"
           style="fill:none;stroke:#808080;stroke-width:10;stroke-linecap:butt;stroke-linejoin:miter;stroke-miterlimit:10;stroke-opacity:1;stroke-dasharray:none"
           d="m 2890,3990 0,680.7"
           inkscape:connector-curvature="0" />
        <path
           id="path7036"
           style="fill:#808080;fill-opacity:1;fill-rule:nonzero;stroke:none"
           d="m 2950,4550.7 -60,120 -60,-120"
           inkscape:connector-curvature="0" />
        <g
           transform="scale(10,10)"
           id="g7038">
          <text
             id="text7040"
             transform="matrix(1,0,0,-1,252,436)">
            <tspan
               id="tspan7042"
               sodipodi:role="line"
               y="0"
               x="0 11.676 17.927999 25.403999"
               style="font-size:12px;font-variant:normal;font-weight:normal;writing-mode:lr-tb;fill:#808080;fill-opacity:1;fill-rule:nonzero;stroke:none;font-family:Verdana;-inkscape-font-specification:Verdana">msgs</tspan>
          </text>
        </g>
        <path
           id="path7096"
           style="fill:none;stroke:#000000;stroke-width:3.84511423;stroke-linecap:butt;stroke-linejoin:miter;stroke-miterlimit:10;stroke-opacity:1;stroke-dasharray:none"
           d="m 2960,3670 0,-424.3267"
           inkscape:connector-curvature="0" />
        <path
           id="path7108"
           style="fill:none;stroke:#000000;stroke-width:10;stroke-linecap:butt;stroke-linejoin:miter;stroke-miterlimit:10;stroke-opacity:1;stroke-dasharray:none"
           d="m 3030,3990 0,680.7"
           inkscape:connector-curvature="0" />
        <path
           id="path7110"
           style="fill:#000000;fill-opacity:1;fill-rule:nonzero;stroke:none"
           d="m 2970,4110 60,-120 60,120"
           inkscape:connector-curvature="0" />
        <g
           transform="scale(10,10)"
           id="g7112">
          <text
             id="text7114"
             transform="matrix(1,0,0,-1,307,436)">
            <tspan
               id="tspan7116"
               sodipodi:role="line"
               y="0"
               x="0 11.676 17.927999 25.403999 30.851999 36.299999 47.976002 54.228001 61.703999"
               style="font-size:12px;font-variant:normal;font-weight:normal;writing-mode:lr-tb;fill:#000000;fill-opacity:1;fill-rule:nonzero;stroke:none;font-family:Verdana;-inkscape-font-specification:Verdana">msg::msgs</tspan>
          </text>
        </g>
        <path
           id="path7118"
           style="fill:none;stroke:#000000;stroke-width:10;stroke-linecap:butt;stroke-linejoin:miter;stroke-miterlimit:10;stroke-opacity:1;stroke-dasharray:none"
           d="m 3440,3830 650,0"
           inkscape:connector-curvature="0" />
        <path
           id="path7120"
           style="fill:#000000;fill-opacity:1;fill-rule:nonzero;stroke:none"
           d="m 3560,3890 -120,-60 120,-60"
           inkscape:connector-curvature="0" />
        <path
           id="path7122"
           style="fill:#000000;fill-opacity:1;fill-rule:nonzero;stroke:none"
           d="m 3970,3770 120,60 -120,60"
           inkscape:connector-curvature="0" />
        <g
           transform="scale(10,10)"
           id="g7124">
          <text
             id="text7126"
             transform="matrix(1,0,0,-1,374,390)">
            <tspan
               id="tspan7128"
               y="0"
               x="0"
               style="font-size:12px;font-variant:normal;font-weight:normal;writing-mode:lr-tb;fill:#000000;fill-opacity:1;fill-rule:nonzero;stroke:none;font-family:Verdana;-inkscape-font-specification:Verdana">u</tspan>
          </text>
        </g>
        <path
           id="path7184"
           style="fill:#ffffff;fill-opacity:1;fill-rule:nonzero;stroke:none"
           d="m 2480,3670 960,0 0,320 -960,0 0,-320 z"
           inkscape:connector-curvature="0" />
        <path
           id="path7186"
           style="fill:none;stroke:#000000;stroke-width:10;stroke-linecap:butt;stroke-linejoin:miter;stroke-miterlimit:10;stroke-opacity:1;stroke-dasharray:none"
           d="m 2480,3670 960,0 0,320 -960,0 0,-320 z"
           inkscape:connector-curvature="0" />
        <g
           transform="scale(10,10)"
           id="g7188">
          <text
             id="text7190"
             transform="matrix(1,0,0,-1,265.911,379)">
            <tspan
               id="tspan7192"
               sodipodi:role="line"
               y="0"
               x="0 8.2080002 15.36 22.955999 30.431999 34.655998 42.132 49.344002 54.071999"
               style="font-size:12px;font-variant:normal;font-weight:normal;writing-mode:lr-tb;fill:#000000;fill-opacity:1;fill-rule:nonzero;stroke:none;font-family:Verdana;-inkscape-font-specification:Verdana">Send data</tspan>
          </text>
        </g>
        <path
           id="path7268"
           style="fill:#ffffff;fill-opacity:1;fill-rule:nonzero;stroke:none"
           d="m 3800,4870 c 0,110.45 -376.08,200 -840,200 -463.92,0 -840,-89.55 -840,-200 0,-110.45 376.08,-200 840,-200 463.92,0 840,89.55 840,200"
           inkscape:connector-curvature="0" />
        <path
           id="path7270"
           style="fill:none;stroke:#000000;stroke-width:10;stroke-linecap:butt;stroke-linejoin:miter;stroke-miterlimit:10;stroke-opacity:1;stroke-dasharray:none"
           d="m 3800,4870 c 0,110.45 -376.08,200 -840,200 -463.92,0 -840,-89.55 -840,-200 0,-110.45 376.08,-200 840,-200 463.92,0 840,89.55 840,200"
           inkscape:connector-curvature="0" />
        <g
           transform="scale(10,10)"
           id="g7272">
          <text
             id="text7274"
             transform="matrix(1,0,0,-1,234.626,483)">
            <tspan
               id="tspan7276"
               sodipodi:role="line"
               y="0"
               x="0 10.116 17.268 23.52 29.771999 36.984001 44.459999 51.612 57.863998 62.088001 66.816002 74.099998 78.323997 85.800003 92.952003 97.176003 103.428 110.58 118.176"
               style="font-size:12px;font-variant:normal;font-weight:normal;writing-mode:lr-tb;fill:#000000;fill-opacity:1;fill-rule:nonzero;stroke:none;font-family:Verdana;-inkscape-font-specification:Verdana">Messages to be sent</tspan>
            <tspan
               id="tspan7278"
               sodipodi:role="line"
               y="-37"
               x="74.373802 79.8218"
               style="font-size:12px;font-variant:normal;font-weight:normal;writing-mode:lr-tb;fill:#000000;fill-opacity:1;fill-rule:nonzero;stroke:none;font-family:Verdana;-inkscape-font-specification:Verdana">[]</tspan>
            <tspan
               id="tspan7280"
               sodipodi:role="line"
               y="33"
               x="76.373802 86.489799 94.073799 102.2818 110.4898 118.6978 127.9978 135.5818"
               style="font-size:12px;font-variant:normal;font-weight:normal;writing-mode:lr-tb;fill:#000000;fill-opacity:1;fill-rule:nonzero;stroke:none;font-family:Verdana;-inkscape-font-specification:Verdana">MESSAGES</tspan>
          </text>
        </g>
        <path
           id="path7400"
           style="fill:#71e41a;fill-opacity:1;fill-rule:nonzero;stroke:none"
           d="m 3050,5110 c 0,49.7 -40.3,90 -90,90 -49.7,0 -90,-40.3 -90,-90 0,-49.7 40.3,-90 90,-90 49.7,0 90,40.3 90,90"
           inkscape:connector-curvature="0" />
        <path
           id="path7402"
           style="fill:none;stroke:#000000;stroke-width:5;stroke-linecap:butt;stroke-linejoin:miter;stroke-miterlimit:10;stroke-opacity:1;stroke-dasharray:none"
           d="m 3050,5110 c 0,49.7 -40.3,90 -90,90 -49.7,0 -90,-40.3 -90,-90 0,-49.7 40.3,-90 90,-90 49.7,0 90,40.3 90,90"
           inkscape:connector-curvature="0" />
        <g
           transform="scale(10,10)"
           id="g7404">
          <text
             id="text7406"
             transform="matrix(1,0,0,-1,292,507)">
            <tspan
               id="tspan7408"
               y="0"
               x="0"
               style="font-size:12px;font-variant:normal;font-weight:normal;writing-mode:lr-tb;fill:#000000;fill-opacity:1;fill-rule:nonzero;stroke:none;font-family:Verdana;-inkscape-font-specification:Verdana">1</tspan>
          </text>
        </g>
        <path
           id="path7410"
           style="fill:#bfff8e;fill-opacity:1;fill-rule:nonzero;stroke:none"
           d="m 2570,5210 300,0 0,180 -300,0 0,-180 z"
           inkscape:connector-curvature="0" />
        <path
           id="path7412"
           style="fill:none;stroke:#000000;stroke-width:10;stroke-linecap:butt;stroke-linejoin:miter;stroke-miterlimit:10;stroke-opacity:1;stroke-dasharray:none"
           d="m 2570,5210 300,0 0,180 -300,0 0,-180 z"
           inkscape:connector-curvature="0" />
        <g
           transform="scale(10,10)"
           id="g7414">
          <text
             id="text7416"
             transform="matrix(1,0,0,-1,259,526)">
            <tspan
               id="tspan7418"
               sodipodi:role="line"
               y="0"
               x="0 7.632 15.264 20.712"
               style="font-size:12px;font-variant:normal;font-weight:normal;writing-mode:lr-tb;fill:#000000;fill-opacity:1;fill-rule:nonzero;stroke:none;font-family:Verdana;-inkscape-font-specification:Verdana">1`[]</tspan>
          </text>
        </g>
        <rect
           style="fill:url(#linearGradient7780);fill-opacity:1;stroke:none;stroke-width:4.49835777000000010"
           id="rect7772"
           width="1975.5726"
           height="1152.4177"
           x="2222.9243"
           y="-4319.2935"
           transform="scale(1,-1)" />
      </g>
    </g>
  </g>
</svg>
